<?xml version="1.0" encoding="UTF-8"?>
<svg width="51px" height="64px" viewBox="0 0 51 64" version="1.1" xmlns="http://www.w3.org/2000/svg" xmlns:xlink="http://www.w3.org/1999/xlink">
    <!-- Generator: Sketch 49 (51002) - http://www.bohemiancoding.com/sketch -->
    <title>Page 1</title>
    <desc>Created with Sketch.</desc>
    <defs>
        <polygon id="path-1" points="45.8965548 0.077078727 0.0673789552 0.077078727 0.0673789552 22.7469615 45.8965548 22.7469615 45.8965548 0.077078727"></polygon>
    </defs>
    <g id="Page-1" stroke="none" stroke-width="1" fill="none" fill-rule="evenodd">
        <g id="Homepage-new-nav" transform="translate(-304.000000, -2659.000000)">
            <g id="Quickest-Claim-Process" transform="translate(0.000000, 2470.000000)">
                <g id="Page-1" transform="translate(304.000000, 189.000000)">
                    <path d="M43.4831897,57.4255384 L43.4831897,56.0938667 C43.4831897,46.1769755 35.281552,38.0631263 25.2576049,38.0631263 C15.2335496,38.0631263 7.0319118,46.1769755 7.0319118,56.0938667 L7.0319118,57.4255384 C7.0319118,60.0039772 9.14462889,62.0940007 11.750931,62.0940007 L38.7643873,62.0940007 C41.370581,62.0940007 43.4831897,60.0037628 43.4831897,57.4255384" id="Fill-1"></path>
                    <path d="M25.2575616,39.8918325 C16.2271778,39.8918325 8.88050946,47.160067 8.88050946,56.0938023 L8.88050946,57.425474 C8.88050946,58.991062 10.1681649,60.2649514 11.7506709,60.2649514 L38.7643439,60.2649514 C40.3469583,60.2649514 41.6345054,58.991062 41.6345054,57.425474 L41.6345054,56.0938023 C41.6346137,47.160067 34.2879453,39.8918325 25.2575616,39.8918325 M38.7643439,63.9229213 L11.7506709,63.9229213 C8.12935005,63.9229213 5.18322745,61.0081876 5.18322745,57.4255812 L5.18322745,56.0939095 C5.18322745,45.1430486 14.1885798,36.2340771 25.2575616,36.2340771 C36.3265434,36.2340771 45.3318957,45.1430486 45.3318957,56.0939095 L45.3318957,57.4255812 C45.3318957,61.0081876 42.3856648,63.9229213 38.7643439,63.9229213" id="Fill-3" fill="#008493"></path>
                    <g id="Group-7" transform="translate(2.275584, 0.030124)">
                        <mask id="mask-2" fill="white">
                            <use xlink:href="#path-1"></use>
                        </mask>
                        <g id="Clip-6"></g>
                        <path d="M45.8965548,22.7469615 L42.1992728,22.7469615 C42.1992728,12.2636114 33.5783858,3.73488777 22.9819669,3.73488777 C12.3856563,3.73488777 3.76466096,12.2636114 3.76466096,22.7469615 L0.0673789552,22.7469615 C0.0673789552,10.2467002 10.3467332,0.0770251256 22.9819669,0.0770251256 C35.6174173,0.0770251256 45.8965548,10.2467002 45.8965548,22.7469615" id="Fill-5" fill="#008493" mask="url(#mask-2)"></path>
                    </g>
                    <path d="M25.2575616,10.7701816 C18.3379444,10.7701816 12.7083666,16.3395752 12.7083666,23.1852168 C12.7083666,30.0307511 18.3378361,35.6001447 25.2575616,35.6001447 C32.1773955,35.6001447 37.8067566,30.0307511 37.8067566,23.1852168 C37.8067566,16.339468 32.1771787,10.7701816 25.2575616,10.7701816 M25.2575616,39.257793 C16.299238,39.257793 9.01108463,32.0475551 9.01108463,23.1851095 C9.01108463,14.3225568 16.299238,7.11221173 25.2575616,7.11221173 C34.2158852,7.11221173 41.5040386,14.3225568 41.5040386,23.1851095 C41.5041469,32.0477695 34.2158852,39.257793 25.2575616,39.257793" id="Fill-8" fill="#008493"></path>
                    <path d="M10.7641511,20.4229253 C10.7641511,19.5497595 10.3158611,18.7322318 9.56773579,18.2691162 C8.79295366,17.7897059 7.87914419,17.5118365 6.90281034,17.5118365 C4.12291372,17.5118365 1.84863017,19.7619136 1.84863017,22.5119839 L1.84863017,25.8661414 C1.84863017,28.6164261 4.12302208,30.866396 6.90281034,30.866396 C7.87914419,30.866396 8.79295366,30.5885266 9.56773579,30.1091162 C10.3157527,29.6460007 10.7641511,28.828473 10.7641511,27.9553072 L10.7641511,20.4229253 Z" id="Fill-10" fill="#CEE8FA"></path>
                    <path d="M6.90294037,19.3407357 C5.13524514,19.3407357 3.69729284,20.7634224 3.69729284,22.5121126 L3.69729284,25.86627 C3.69729284,27.6151745 5.13524514,29.0376469 6.90294037,29.0376469 C7.4987099,29.0376469 8.08104266,28.872126 8.58708917,28.5587725 C8.78994122,28.4332382 8.91553178,28.2021092 8.91553178,27.9553286 L8.91553178,20.4226251 C8.91553178,20.1757374 8.7897245,19.9448228 8.58741425,19.8195028 C8.08104266,19.5062566 7.49849318,19.3407357 6.90294037,19.3407357 M6.90294037,32.6955095 C3.09675542,32.6955095 1.08361141e-05,29.6318714 1.08361141e-05,25.8663772 L1.08361141e-05,22.5122198 C1.08361141e-05,18.7467256 3.09675542,15.6830874 6.90294037,15.6830874 C8.19319643,15.6830874 9.45376155,16.0412516 10.5485341,16.7189869 C11.8410658,17.5189333 12.6130305,18.9036704 12.6130305,20.4230539 L12.6130305,27.9557575 C12.6130305,29.4752482 11.8409574,30.8598781 10.548209,31.6600389 C9.45365318,32.337131 8.19287135,32.6955095 6.90294037,32.6955095" id="Fill-12" fill="#F56F02"></path>
                    <path d="M39.7507554,20.4229253 C39.7507554,19.5497595 40.1990454,18.7322318 40.9471707,18.2691162 C41.7219528,17.7897059 42.6357623,17.5118365 43.6120961,17.5118365 C46.3919927,17.5118365 48.6662763,19.7619136 48.6662763,22.5119839 L48.6662763,25.8661414 C48.6662763,28.6164261 46.3918844,30.866396 43.6120961,30.866396 C42.6357623,30.866396 41.7219528,30.5885266 40.9471707,30.1091162 C40.1991537,29.6460007 39.7507554,28.828473 39.7507554,27.9553072 L39.7507554,20.4229253 Z" id="Fill-14" fill="#CEE8FA"></path>
                    <path d="M43.6121828,19.3407357 C43.0164133,19.3407357 42.4340805,19.5062566 41.928034,19.8196101 C41.725182,19.9451444 41.5995914,20.1762734 41.5995914,20.4230539 L41.5995914,27.9557575 C41.5995914,28.2024308 41.7253987,28.4335598 41.9277089,28.5588797 C42.4340805,28.8723404 43.01663,29.0378613 43.6122912,29.0378613 C45.3799864,29.0378613 46.8179387,27.6151745 46.8179387,25.8664844 L46.8179387,22.512327 C46.8178303,20.7633152 45.3798781,19.3407357 43.6121828,19.3407357 M43.6121828,32.6955095 C42.3220351,32.6955095 41.0613616,32.3374526 39.9665891,31.6596101 C38.6740574,30.8596637 37.9020927,29.4749266 37.9020927,27.955543 L37.9020927,20.4229467 C37.9020927,18.9034559 38.6741658,17.5185045 39.9670225,16.7185581 C41.06147,16.04093 42.3221435,15.682873 43.6121828,15.682873 C47.4183678,15.682873 50.5151124,18.7465112 50.5151124,22.5120054 L50.5151124,25.8661628 C50.5151124,29.6318714 47.4184761,32.6955095 43.6121828,32.6955095" id="Fill-16" fill="#F56F02"></path>
                    <path d="M39.5539282,30.6339806 L26.4283603,30.6339806 C25.4074901,30.6339806 24.5797193,29.8152737 24.5797193,28.8049956 C24.5797193,27.794932 25.4074901,26.9761179 26.4283603,26.9761179 L39.5539282,26.9761179 C40.5747985,26.9761179 41.4025692,27.794932 41.4025692,28.8049956 C41.4025692,29.8152737 40.5746901,30.6339806 39.5539282,30.6339806" id="Fill-18" fill="#F56F02"></path>
                </g>
            </g>
        </g>
    </g>
</svg>