<?xml version="1.0" encoding="UTF-8"?>
<svg width="47px" height="64px" viewBox="0 0 47 64" version="1.1" xmlns="http://www.w3.org/2000/svg" xmlns:xlink="http://www.w3.org/1999/xlink">
    <!-- Generator: Sketch 49 (51002) - http://www.bohemiancoding.com/sketch -->
    <title>Page 1</title>
    <desc>Created with Sketch.</desc>
    <defs>
        <polygon id="path-1" points="0 0.751141463 46.7933659 0.751141463 46.7933659 57.7560976 0 57.7560976"></polygon>
        <polygon id="path-3" points="0 1.03164878 46.7933659 1.03164878 46.7933659 58.0369171 0 58.0369171"></polygon>
        <polygon id="path-5" points="0 63.4731707 46.7933659 63.4731707 46.7933659 0.000780487805 0 0.000780487805"></polygon>
    </defs>
    <g id="Page-1" stroke="none" stroke-width="1" fill="none" fill-rule="evenodd">
        <g id="Homepage-new-nav" transform="translate(-697.000000, -2659.000000)">
            <g id="Quickest-Claim-Process" transform="translate(0.000000, 2470.000000)">
                <g id="Page-1" transform="translate(697.000000, 189.000000)">
                    <g id="Group-3" transform="translate(0.000000, 5.717073)">
                        <mask id="mask-2" fill="white">
                            <use xlink:href="#path-1"></use>
                        </mask>
                        <g id="Clip-2"></g>
                        <path d="M43.8579512,57.7564098 L2.93541463,57.7564098 C1.31356098,57.7564098 -0.000780487805,56.4420683 -0.000780487805,54.8202146 L-0.000780487805,3.68577561 C-0.000780487805,2.06548293 1.31356098,0.751141463 2.93541463,0.751141463 L43.8579512,0.751141463 C45.4798049,0.751141463 46.7941463,2.06548293 46.7941463,3.68577561 L46.7941463,54.8202146 C46.7941463,56.4420683 45.4798049,57.7564098 43.8579512,57.7564098" id="Fill-1" fill="#D6D6D5" mask="url(#mask-2)"></path>
                    </g>
                    <g id="Group-6" transform="translate(0.000000, 4.156098)">
                        <mask id="mask-4" fill="white">
                            <use xlink:href="#path-3"></use>
                        </mask>
                        <g id="Clip-5"></g>
                        <path d="M43.8579512,58.0369171 L2.93541463,58.0369171 C1.31356098,58.0369171 -0.000780487805,56.7225756 -0.000780487805,55.100722 L-0.000780487805,3.9678439 C-0.000780487805,2.34599024 1.31356098,1.03164878 2.93541463,1.03164878 L43.8579512,1.03164878 C45.4798049,1.03164878 46.7941463,2.34599024 46.7941463,3.9678439 L46.7941463,55.100722 C46.7941463,56.7225756 45.4798049,58.0369171 43.8579512,58.0369171" id="Fill-4" fill="#008391" mask="url(#mask-4)"></path>
                    </g>
                    <mask id="mask-6" fill="white">
                        <use xlink:href="#path-5"></use>
                    </mask>
                    <g id="Clip-8"></g>
                    <polygon id="Fill-7" fill="#FEFEFE" mask="url(#mask-6)" points="2.70829268 59.7923902 44.0835122 59.7923902 44.0835122 7.5902439 2.70829268 7.5902439"></polygon>
                    <polygon id="Fill-9" fill="#F16522" mask="url(#mask-6)" points="26.3211707 18.4749268 40.830439 18.4749268 40.830439 16.1412683 26.3211707 16.1412683"></polygon>
                    <polygon id="Fill-10" fill="#F16522" mask="url(#mask-6)" points="8.27160976 48.0195122 38.5217561 48.0195122 38.5217561 45.6874146 8.27160976 45.6874146"></polygon>
                    <polygon id="Fill-11" fill="#F16522" mask="url(#mask-6)" points="26.3227317 24.5814634 38.5217561 24.5814634 38.5217561 22.2478049 26.3227317 22.2478049"></polygon>
                    <polygon id="Fill-12" fill="#F16522" mask="url(#mask-6)" points="26.3227317 30.688 38.5217561 30.688 38.5217561 28.3543415 26.3227317 28.3543415"></polygon>
                    <polygon id="Fill-13" fill="#F16522" mask="url(#mask-6)" points="8.27160976 40.9498537 38.5217561 40.9498537 38.5217561 38.6161951 8.27160976 38.6161951"></polygon>
                    <path d="M14.8579902,5.18852683 L14.8579902,7.56433171 C14.8579902,8.15594146 15.3387707,8.63672195 15.9303805,8.63672195 L30.8642341,8.63672195 C31.4558439,8.63672195 31.9335024,8.15594146 31.9335024,7.56433171 L31.9335024,5.18852683 L14.8579902,5.18852683 Z" id="Fill-14" fill="#696867" mask="url(#mask-6)"></path>
                    <path d="M14.8609561,7.58930732 C14.8734439,8.16999024 15.3464195,8.63672195 15.9302244,8.63672195 L30.864078,8.63672195 C31.4478829,8.63672195 31.9192976,8.16999024 31.9333463,7.58930732 L14.8609561,7.58930732 Z" id="Fill-15" fill="#D6D6D5" mask="url(#mask-6)"></path>
                    <path d="M23.3960585,3.21592195 C22.8965463,3.21592195 22.4891317,2.81006829 22.4891317,2.30899512 C22.4891317,1.80792195 22.8965463,1.40206829 23.3960585,1.40206829 C23.8971317,1.40206829 24.3045463,1.80792195 24.3045463,2.30899512 C24.3045463,2.81006829 23.8971317,3.21592195 23.3960585,3.21592195 M30.8637659,2.30899512 L25.7063024,2.30899512 C25.7063024,1.03367805 24.6713756,-0.00124878049 23.3960585,-0.00124878049 C22.1223024,-0.00124878049 21.0873756,1.03367805 21.0873756,2.30899512 L15.9299122,2.30899512 C15.3383024,2.30899512 14.857522,2.78977561 14.857522,3.37982439 L14.857522,6.99816585 C14.857522,7.58977561 15.3383024,8.06743415 15.9299122,8.06743415 L30.8637659,8.06743415 C31.4553756,8.06743415 31.9345951,7.58977561 31.9345951,6.99816585 L31.9345951,3.37982439 C31.9345951,2.78977561 31.4553756,2.30899512 30.8637659,2.30899512" id="Fill-16" fill="#F16522" mask="url(#mask-6)"></path>
                    <path d="M30.864078,8.06805854 C31.4556878,8.06805854 31.9349073,7.58883902 31.9349073,6.99722927 L31.9349073,6.04035122 L14.8578341,6.04035122 L14.8578341,6.99722927 C14.8578341,7.58883902 15.3386146,8.06805854 15.9302244,8.06805854" id="Fill-17" fill="#FEFEFE" mask="url(#mask-6)"></path>
                    <path d="M21.4204878,23.4353951 C21.4204878,26.8632976 18.6419512,29.6418341 15.2124878,29.6418341 C11.7861463,29.6418341 9.00760976,26.8632976 9.00760976,23.4353951 C9.00760976,20.0090537 11.7861463,17.2289561 15.2124878,17.2289561 C18.6419512,17.2289561 21.4204878,20.0090537 21.4204878,23.4353951" id="Fill-18" fill="#F16522" mask="url(#mask-6)"></path>
                    <polygon id="Fill-19" fill="#FEFEFE" mask="url(#mask-6)" points="19.4494439 22.2464 16.4039805 22.2464 16.4039805 19.1993756 14.0234927 19.1993756 14.0234927 22.2464 10.9780293 22.2464 10.9780293 24.6253268 14.0234927 24.6253268 14.0234927 27.6723512 16.4039805 27.6723512 16.4039805 24.6253268 19.4494439 24.6253268"></polygon>
                </g>
            </g>
        </g>
    </g>
</svg>